
        <svg xmlns="http://www.w3.org/2000/svg" xmlns:xlink="http://www.w3.org/1999/xlink" version="1.1" width="3222.222222222222" height="3147.3230578239995" viewBox="0 0 3222.222222222222 3147.3230578239995">
			
			<g transform="scale(11.111111111111109) translate(10, 10)">
				<defs id="SvgjsDefs1228"/><g id="SvgjsG1229" featureKey="rootContainer" transform="matrix(2.5809712409973145,0,0,2.5809712409973145,0.03043251690621314,0)" fill="#fff"><path xmlns="http://www.w3.org/2000/svg" d="M50.8 102h5.8l1.8-.2 1.7-.3h1.7l1.9-.3 1.8-.4.9-.2.9-.3 1.7-.6 2-.8a54 54 0 0 0 15.3-9.4l1.4-1.2.7-.5.6-.4 1-.5.8-.5 1.5-1.2 1.5-1.5.8-1 .9-1.1a50.9 50.9 0 0 0 3.9-5.8 34.8 34.8 0 0 0 1.6-3.1l.2-.4.2-.4.3-.8.3-.9.2-.4v-.4l.4-1.2.2-.6v-.3h.1v-.2l.7-2.5c.2-.9.4-1.7.5-2.6a25.4 25.4 0 0 0 .2-2.6v-3.1c0-.3 0-1 .1-1.5v-2.1a21.3 21.3 0 0 0 .2-2.6v-2.6c0-.9-.1-1.1-.1-1.6l-.2-1.5c-.1-1-.4-2-.5-3s-.2-1-.3-1.4l-.3-1.4-.3-1.4v-1.7l-.4-1.4-.2-.7-.2-.7-.4-1.4-.5-1.4-.4-1-.5-1-1-2.1a40.7 40.7 0 0 1-1.8-4.1 3.6 3.6 0 0 0-.8-1.2l-.7-.6-.2-.3-.3-.5a25.7 25.7 0 0 0-1.6-2.3l-.8-1.1-.9-1.1-.4-.5-.2-.3-.2-.2h-.1l-.9-1-.5-.5-.5-.5-.9-1.1-1.1-1a47.9 47.9 0 0 0-3.8-3l-.1-.5-1.3-.9A29 29 0 0 0 72 .4h-3.1a.8.8 0 0 0-.6 1.2A3.9 3.9 0 0 0 69.9 3l-.6.3-.4-.2a.9.9 0 0 0 0-.3c-.1-.5-.2-.9-1.3-1.3L65.3.7l-.6-.2h-.6L62.8 0l-1.3 1.2A48.5 48.5 0 0 0 39 2.4 31.1 31.1 0 0 0 31.4 4h-.5l-.5.2-1 .4-1 .5-.9.6-1.8 1.5-.8.6-.7.7c-1 .9-1.9 1.9-2.8 2.8L20 12.8l-1.4 1.5-.5.5-.5.5-1.1 1a55.1 55.1 0 0 0-7 7l.2-.5.6-1.1.6-1.1.6-1.1.6-1.2.6-1.2 1.2-2.4.4-.8.3-.6a1 1 0 0 0 0-.8 3.7 3.7 0 0 1-.2-1.2 17.1 17.1 0 0 0-2.1 1.1l-1.5 1.1-.8.6-.7.7-.8 1-.5 1-.5 1-.2.5-.3.5-.3.6-.4.8-.4.8-.7 1.7-.5 1.3-.5 1.3v.7l-.2.6-.3 1.3v.2h-.4v.3l-.2.7-.3 1.4-.2.7-.2.7-.4 1.7-.4 1.9-.2.9v2.8l-.6 1.9a38.3 38.3 0 0 0-.1 4.1 52.7 52.7 0 0 0-.7 8.7 5.2 5.2 0 0 0 0 .7c.5 3 .8 6 1.5 9l.4 1.8.5 1.8a18.3 18.3 0 0 0 .6 1.7l.4.8.4.8.9 1.7.5.8.5.8.5.8.5.8L7.8 77c1.4 2 2.9 4 4.5 5.9a35.6 35.6 0 0 0 2.6 2.7l.7.6.3.3.4.3 1.5 1.1 1 1a34 34 0 0 0 8.2 6.2l1.4.7 1.5.7.7.3.8.3 1.5.6.9.4.8.4.8.4 1 .4 1.9.7 1.9.6 1.6.4 1.6.4 1.6.3h5.7z"/></g><g id="SvgjsG1230" featureKey="symbolFeature-0" transform="matrix(0.8999999761581421,0,0,0.8999999761581421,90.00087890625,54)" fill="#000000"><path xmlns="http://www.w3.org/2000/svg" d="M49.9990234,51.4321289c-8.8798828,0-16.1040039,7.2241211-16.1040039,16.1040039  S41.1191406,83.640625,49.9990234,83.640625s16.1044922-7.2246094,16.1044922-16.1044922  S58.8789062,51.4321289,49.9990234,51.4321289z M49.9990234,81.640625c-7.7768555,0-14.1040039-6.3271484-14.1040039-14.1044922  c0-7.7768555,6.3271484-14.1040039,14.1040039-14.1040039c7.7773438,0,14.1044922,6.3271484,14.1044922,14.1040039  C64.1035156,75.3134766,57.7763672,81.640625,49.9990234,81.640625z"/><path xmlns="http://www.w3.org/2000/svg" d="M50.0800781,66.5361328H49.918457c-1.6391602,0-2.9731445-1.3300781-2.9731445-2.965332  s1.3339844-2.9658203,2.9731445-2.9658203s2.9731445,1.3305664,2.9731445,2.9658203c0,0.5522461,0.4477539,1,1,1s1-0.4477539,1-1  c0-2.3668213-1.6696167-4.3449707-3.8925781-4.8400269v-0.8504028c0-0.5522461-0.4477539-1-1-1s-1,0.4477539-1,1v0.8174438  c-2.3033447,0.4327393-4.0537109,2.4490967-4.0537109,4.8729858c0,2.737793,2.230957,4.965332,4.9731445,4.965332h0.1616211  c1.6391602,0,2.9726562,1.3305664,2.9726562,2.9658203s-1.3334961,2.965332-2.9726562,2.965332  s-2.9731445-1.3300781-2.9731445-2.965332c0-0.5522461-0.4477539-1-1-1s-1,0.4477539-1,1  c0,2.3662109,1.6694336,4.3440552,3.8920898,4.8394165v0.8505249c0,0.5522461,0.4477539,1,1,1s1-0.4477539,1-1v-0.8173828  c2.3032227-0.4326172,4.0537109-2.4489746,4.0537109-4.8725586C55.0527344,68.7636719,52.8217773,66.5361328,50.0800781,66.5361328z  "/><path xmlns="http://www.w3.org/2000/svg" d="M13.2896118,47.4738159l6.0883179,41.6707153C19.449707,89.6357422,19.8706055,90,20.3671875,90h60.1806641  c0.5043945,0,0.9301758-0.3759766,0.9921875-0.8769531l5.1732178-41.6497192  c1.8322144-0.1376343,3.2857666-1.6558228,3.2857666-3.522644v-4.8164062c0-1.9570312-1.5922852-3.5493164-3.5493164-3.5493164  H74.8828125V24.9902344c0-5.9316406-4.8261719-10.7578125-10.7578125-10.7578125h-0.4511719v-0.6831055  C63.6738281,11.5922852,62.081543,10,60.1245117,10H39.8735352c-1.9570312,0-3.5493164,1.5922852-3.5493164,3.5493164v0.6831055  h-0.4511719c-5.9316406,0-10.7578125,4.8261719-10.7578125,10.7578125v10.5947266H13.5483398  c-1.9570312,0-3.5493164,1.5922852-3.5493164,3.5493164v4.8164062C9.9990234,45.8191528,11.4550171,47.338562,13.2896118,47.4738159  z M79.6645508,88H21.2319336L15.314209,47.5h69.3807373L79.6645508,88z M38.3242188,13.5493164  C38.3242188,12.6948242,39.019043,12,39.8735352,12h20.2509766c0.8544922,0,1.5493164,0.6948242,1.5493164,1.5493164v2.8164062  c0,0.8544922-0.6948242,1.5493164-1.5493164,1.5493164H39.8735352c-0.8544922,0-1.5493164-0.6948242-1.5493164-1.5493164V13.5493164  z M27.1152344,24.9902344c0-4.8291016,3.9287109-8.7578125,8.7578125-8.7578125h0.4511719v0.1333008  c0,1.9570312,1.5922852,3.5493164,3.5493164,3.5493164h20.2509766c1.9570312,0,3.5493164-1.5922852,3.5493164-3.5493164v-0.1333008  H64.125c4.8291016,0,8.7578125,3.9287109,8.7578125,8.7578125v10.5947266H27.1152344V24.9902344z M11.9990234,39.1342773  c0-0.8544922,0.6948242-1.5493164,1.5493164-1.5493164H86.449707c0.8544922,0,1.5493164,0.6948242,1.5493164,1.5493164v4.8164062  c0,0.8544922-0.6948242,1.5493164-1.5493164,1.5493164H13.5483398c-0.8544922,0-1.5493164-0.6948242-1.5493164-1.5493164V39.1342773  z"/></g><g id="SvgjsG1231" featureKey="nameFeature-0" transform="matrix(1.6365721225738525,0,0,1.6365721225738525,31.482415030837434,136.63203503337212)" fill="#000000"><path d="M14.64 21.12 c-0.16 0.16 -0.2 0.32 -0.24 0.48 c-0.16 0.8 -0.44 1.6 -0.72 2.36 c-0.24 0.64 -0.4 1.32 -0.6 1.96 c-0.16 0.44 -0.32 0.92 -0.52 1.4 c-0.12 0.32 -0.28 0.64 -0.48 0.92 c-0.2 0.24 -0.32 0.48 -0.52 0.72 c-0.08 0.12 -0.2 0.24 -0.28 0.36 c-0.08 0.08 -0.2 0.12 -0.32 0.12 c-0.24 0 -0.44 -0.04 -0.68 0.04 c-0.04 0.04 -0.12 0 -0.2 0 c-0.12 -0.04 -0.28 -0.04 -0.44 0 c-0.24 0.08 -0.44 0.04 -0.68 0.04 c-0.08 0 -0.12 -0.04 -0.2 -0.04 c-0.36 -0.2 -0.48 -0.28 -0.48 -0.72 l0 -0.08 c0.12 -0.4 0 -0.76 -0.16 -1.12 c-0.08 -0.12 -0.12 -0.24 -0.2 -0.36 c-0.24 -0.64 -0.52 -1.24 -0.84 -1.8 c-0.52 -0.96 -0.88 -1.92 -1.16 -2.96 c-0.08 -0.36 -0.2 -0.76 -0.28 -1.12 c-0.12 -0.44 -0.28 -0.88 -0.48 -1.32 c-0.04 -0.04 -0.08 -0.04 -0.12 -0.04 c-0.04 -0.04 -0.08 0 -0.08 0.08 l0 0.32 c0 0.76 0 1.52 0.08 2.28 c0.04 0.64 0.08 1.24 0.12 1.84 c0.08 0.72 0.04 1.44 0.16 2.16 l0 0.12 c0.04 0.76 0.04 1.52 0.04 2.28 c0.04 0.24 0.04 0.44 0.04 0.68 c0.04 0.2 0.04 0.4 0.04 0.6 l0 7.76 c0 0.2 0 0.36 -0.04 0.56 c0 0.08 -0.08 0.16 -0.16 0.2 c-0.64 0.12 -1.28 0.16 -1.92 0.16 c-0.08 0 -0.12 0 -0.16 -0.04 c-0.64 -0.16 -0.64 -0.04 -0.72 -0.76 l0 -0.4 c-0.04 -0.32 -0.04 -0.68 -0.08 -1 c-0.04 -0.48 -0.08 -0.96 -0.08 -1.4 l0 -1.36 c-0.04 -0.72 0 -1.44 -0.04 -2.16 l0 -1.48 c-0.04 -0.2 -0.04 -0.36 -0.04 -0.56 l0 -2.48 l0 -0.4 c-0.08 -0.72 -0.04 -1.44 -0.04 -2.16 l0 -10.2 c-0.04 -0.64 0.04 -1.28 0.12 -1.92 c0.04 -0.12 0.16 -0.12 0.24 -0.16 c0.44 -0.32 0.96 -0.44 1.48 -0.6 c0.24 -0.04 0.44 -0.04 0.68 -0.04 c0.08 0 0.16 0.08 0.2 0.16 c0.16 0.24 0.24 0.52 0.36 0.8 c0.16 0.56 0.4 1.08 0.6 1.64 c0.36 0.56 0.6 1.2 0.88 1.8 c0.24 0.56 0.52 1.08 0.84 1.6 c0.24 0.4 0.36 0.84 0.6 1.2 c0.08 0.12 0.12 0.24 0.16 0.4 c0.16 0.48 0.28 0.96 0.44 1.48 c0.08 0.12 0.08 0.24 0.12 0.36 c0.08 0.88 0.4 1.68 0.84 2.4 c0.16 0.32 0.32 0.64 0.52 0.96 c0 0.04 0.08 0.08 0.08 0.04 c0.04 0 0.08 -0.04 0.08 -0.08 c0.12 -0.36 0.24 -0.72 0.32 -1.08 c0.08 -0.32 0.16 -0.64 0.24 -0.92 c0.16 -0.52 0.32 -1.04 0.44 -1.56 c0.12 -0.76 0.32 -1.48 0.6 -2.2 c0.28 -0.68 0.4 -1.4 0.48 -2.12 c0.04 -0.28 0.08 -0.56 0.16 -0.84 c0.16 -0.64 0.28 -1.28 0.52 -1.88 c0.24 -0.56 0.32 -1.16 0.4 -1.76 c0.04 -0.12 0.04 -0.24 0.08 -0.36 c0.04 -0.2 0.16 -0.32 0.36 -0.28 c0.64 0 1.32 0.04 1.96 0.08 c0.16 0 0.36 0 0.52 0.04 c0.16 0 0.32 0.04 0.48 0.08 c0.12 0.04 0.24 0.12 0.28 0.24 c0.12 0.28 0.16 0.56 0.16 0.88 c0.04 0.28 0.04 0.56 0.08 0.88 c0.12 0.84 0.16 1.68 0.16 2.52 l0 3.2 c0.08 5.88 0.04 11.76 0.04 17.68 l0 0.92 c0 0.12 0 0.24 -0.04 0.36 c0 0.04 -0.08 0.12 -0.12 0.12 c-0.68 0.16 -1.32 0.24 -2 0.2 l-0.08 0 c-0.68 -0.16 -0.76 -0.12 -0.76 -0.84 l0 -2.84 l0 -12.28 c0 -0.56 0 -1.12 -0.04 -1.76 z M33.526 11.920000000000002 c0 0.04 0.04 0.04 0.04 0.08 c0.16 0.68 0.2 1.4 0.2 2.16 l-0.04 0.04 c-0.12 0.64 -0.08 0.76 -0.8 0.8 c-0.24 0.04 -0.52 0.04 -0.8 0.04 l-6.28 0 c-0.24 0 -0.48 0 -0.72 0.04 c-0.2 0 -0.28 0.08 -0.28 0.24 l0 0.72 s0.04 0.48 0.04 0.72 l0 1.32 c0 0.56 0 1.08 0.08 1.64 l0 0.6 l0 5.12 c0 0.24 -0.04 0.48 0.04 0.76 c0.12 -0.04 0.2 0 0.28 -0.04 c0.92 -0.32 1.84 -0.48 2.76 -0.52 c0.64 -0.08 1.32 -0.12 1.96 -0.24 c0.32 -0.08 0.64 -0.12 1 -0.12 c0.36 -0.04 0.64 -0.08 0.96 -0.28 c0.08 -0.04 0.24 -0.04 0.32 0.08 c0.16 0.2 0.36 0.36 0.6 0.52 c0.36 0.24 0.56 0.88 0.28 1.44 c-0.32 0.6 -0.48 0.84 -1.32 1 c-0.28 0.04 -0.52 0.08 -0.8 0.12 c-0.84 0.12 -1.68 0.24 -2.52 0.32 c-0.12 0.04 -0.28 0.04 -0.4 0.04 c-1.04 0.08 -2 0.36 -2.92 0.8 c-0.16 0.08 -0.24 0.2 -0.24 0.4 l0 1.08 l0 4 c0 0.2 0 0.4 0.04 0.64 c0 0.08 0.04 0.12 0.12 0.16 l0.64 0 l6.32 0 l0.48 0 c0.72 0.04 0.64 -0.04 0.76 0.64 c0.08 0.56 0.08 1.08 0.08 1.6 l0 0.16 c-0.2 0.6 -0.12 0.72 -0.84 0.72 c-1.08 0.04 -2.16 0.04 -3.28 0 l-2.32 0 c-0.96 0 -1.96 0 -2.96 -0.04 c-0.56 -0.04 -1.08 -0.12 -1.64 -0.2 c-0.12 0 -0.2 -0.12 -0.24 -0.24 c-0.32 -0.88 -0.32 -0.88 -0.32 -1.84 c-0.04 -1.08 -0.04 -2.2 -0.04 -3.32 l0 -8.04 c0.04 -2.4 0.08 -4.84 0.08 -7.24 c0 -0.8 0.08 -1.6 0.08 -2.4 c0 -0.16 0.04 -0.36 -0.12 -0.52 c-0.08 -0.32 -0.2 -0.6 -0.28 -0.88 c-0.08 -0.64 -0.12 -1.28 0.08 -1.88 c0.08 -0.16 0.16 -0.24 0.32 -0.24 l0.52 0 l10.44 0 c0.2 0 0.44 -0.04 0.64 0.04 z M37.332 14.96 c-0.12 -0.52 -0.16 -1 -0.16 -1.48 c0 -0.24 -0.04 -0.52 0 -0.8 c0.08 -0.52 0.16 -0.64 0.72 -0.68 c0.16 -0.04 0.32 -0.04 0.44 0 c0.76 0 1.52 -0.08 2.24 -0.32 c0.08 0 0.16 -0.04 0.2 -0.04 c0.48 -0.04 0.92 -0.08 1.4 -0.12 c0.2 0 0.4 0 0.56 0.04 c0.32 0 0.6 0.04 0.88 0.08 c0.12 0.04 0.24 0.04 0.36 0.08 c0.44 0.12 0.88 0.24 1.36 0.2 c0.24 0 0.48 0.04 0.72 0.16 c0.16 0.08 0.36 0.16 0.52 0.2 c0.16 0.08 0.32 0.12 0.48 0.2 c0.48 0.28 0.92 0.6 1.4 0.92 c0.12 0.08 0.2 0.2 0.28 0.32 c0.32 0.36 0.64 0.76 1 1.08 c0.2 0.16 0.32 0.36 0.44 0.56 c0.32 0.44 0.6 0.92 0.76 1.48 c0.12 0.36 0.24 0.72 0.32 1.12 c0 0.2 0.08 0.36 0.16 0.56 c0.04 0.12 0.08 0.24 0.08 0.36 c0.04 0.72 0.16 1.44 0.28 2.16 l0 0.08 c-0.04 0.76 0.16 1.52 0.16 2.32 c0.04 0.72 0.08 1.44 0.2 2.16 c0.04 0.24 0.12 0.48 0.16 0.72 c0 0.16 0.04 0.32 0.04 0.52 c0.04 0.48 0.08 0.96 0.08 1.44 c0 0.52 -0.04 1.04 -0.04 1.52 c0 0.52 -0.08 1.04 -0.16 1.52 c-0.08 0.6 -0.08 1.16 -0.24 1.76 l0 0.36 c0 0.24 -0.04 0.48 -0.16 0.68 c-0.08 0.24 -0.16 0.48 -0.2 0.72 c0 0.12 -0.04 0.28 -0.12 0.4 c-0.12 0.28 -0.16 0.56 -0.16 0.88 c0 0.2 -0.08 0.36 -0.2 0.52 c-0.16 0.2 -0.28 0.44 -0.36 0.72 c-0.08 0.24 -0.28 0.4 -0.44 0.56 c0 0.04 -0.04 0.08 -0.12 0.12 c-0.28 0.08 -0.52 0.28 -0.76 0.52 c-0.04 0.04 -0.16 0.08 -0.28 0.08 c-0.24 0 -0.44 0.04 -0.68 0.12 c-0.64 0.08 -1.28 0.28 -1.96 0.28 c-0.6 0.04 -1.2 0.04 -1.8 0 c-1.08 -0.04 -2.12 0 -3.16 0 c-0.12 0 -0.24 0 -0.36 0.04 l-0.2 0 c-0.56 0 -1.08 -0.04 -1.6 -0.08 c-0.08 -0.04 -0.2 -0.08 -0.28 -0.12 c-0.16 -0.24 -0.44 -0.28 -0.68 -0.4 c-0.08 -0.04 -0.16 -0.12 -0.16 -0.24 c0.04 -0.48 0 -1 0.2 -1.48 c0.04 -0.16 0.12 -0.32 0.16 -0.48 c0.12 -0.28 0.32 -0.36 0.6 -0.4 c0.2 -0.04 0.44 0 0.64 0.08 c0.08 0 0.2 -0.08 0.2 -0.16 c0.04 -0.24 0.04 -0.44 0.04 -0.68 l0 -7.48 l0 -8.56 l0 -3.48 c0 -0.16 0 -0.32 -0.04 -0.44 c0 -0.08 -0.08 -0.12 -0.16 -0.16 c-0.32 -0.04 -0.64 -0.04 -0.92 0.04 c-0.36 0.12 -0.72 0.12 -1.08 0 c-0.16 -0.08 -0.4 -0.08 -0.6 -0.08 z M43.212 14.8 c0 0.08 -0.04 0.12 -0.04 0.2 l0 0.68 l0 19.36 l0 0.52 l0 0.24 c0.04 0.08 0.12 0.16 0.2 0.16 l0.44 0 c0.64 0.04 1.24 0 1.84 0.04 c0.48 0 0.92 -0.08 1.36 -0.16 c0.28 -0.04 0.56 -0.16 0.84 -0.24 c0.16 -0.08 0.24 -0.16 0.24 -0.32 c0.04 -0.32 0.12 -0.6 0.24 -0.84 c0.12 -0.28 0.16 -0.56 0.24 -0.84 c0.04 -0.12 0.08 -0.2 0.12 -0.28 c0.12 -0.2 0.16 -0.4 0.2 -0.6 c0.08 -0.48 0.12 -0.92 0.2 -1.4 c0.2 -1.2 0.2 -2.4 0.2 -3.6 c0 -0.4 -0.04 -0.8 -0.16 -1.16 c-0.08 -0.16 -0.08 -0.32 -0.12 -0.48 c-0.04 -0.4 -0.04 -0.8 -0.12 -1.16 c-0.04 -0.16 -0.04 -0.36 -0.04 -0.52 c0.04 -0.6 0 -1.16 -0.08 -1.76 c-0.04 -0.24 -0.04 -0.52 -0.08 -0.8 c0 -0.12 0 -0.28 -0.04 -0.4 c-0.08 -0.68 -0.2 -1.36 -0.32 -2.04 c-0.08 -0.64 -0.32 -1.2 -0.52 -1.8 c-0.04 -0.2 -0.16 -0.36 -0.28 -0.52 c-0.28 -0.28 -0.56 -0.6 -0.8 -0.92 c-0.24 -0.28 -0.48 -0.48 -0.8 -0.64 c-0.4 -0.28 -0.8 -0.4 -1.28 -0.52 c-0.2 -0.04 -0.4 -0.08 -0.64 -0.12 s-0.52 -0.12 -0.8 -0.08 z M58.098000000000006 21.2 c0.4 0.56 0.84 1.08 1.32 1.6 c0.36 0.44 0.8 0.72 1.28 0.96 c0.36 0.12 0.68 0.28 1 0.44 c0.56 0.36 1.04 0.72 1.48 1.16 c0.4 0.4 0.8 0.84 1.24 1.16 c0.12 0.12 0.2 0.24 0.36 0.36 l0.32 0 c0.12 0.04 0.2 0.08 0.28 0.16 c0.28 0.28 0.48 0.6 0.56 1 c0.04 0.32 0.12 0.64 0.24 0.96 c0.12 0.4 0.16 0.84 0.2 1.28 l0 1.16 c0 0.2 0 0.44 0.12 0.64 c0.04 0.08 0.04 0.2 0.04 0.32 c0.04 0.24 0.04 0.48 0.08 0.68 c0.08 0.56 0.08 1.08 -0.04 1.64 c-0.04 0.08 -0.04 0.2 -0.04 0.32 c-0.04 0.08 -0.04 0.2 -0.08 0.32 c-0.16 0.4 -0.24 0.84 -0.4 1.28 c0 0.04 -0.04 0.12 -0.08 0.16 c-0.2 0.28 -0.36 0.6 -0.56 0.88 c-0.08 0.12 -0.16 0.24 -0.28 0.36 c-0.32 0.08 -0.64 0.2 -0.96 0.4 c-0.08 0.08 -0.2 0.12 -0.36 0.12 c-0.12 0 -0.28 0.04 -0.44 0.04 c-0.24 0.04 -0.4 0.12 -0.56 0.32 s-0.36 0.28 -0.6 0.32 l-0.2 0 c-0.24 0.04 -0.52 0.12 -0.76 0.12 c-0.28 0 -0.52 -0.08 -0.76 -0.12 l-0.4 0 c-0.24 0 -0.48 -0.04 -0.68 -0.16 c-0.36 -0.16 -0.76 -0.28 -1.12 -0.36 c-0.28 -0.08 -0.52 -0.2 -0.76 -0.36 s-0.48 -0.32 -0.72 -0.44 c-0.6 -0.32 -1 -0.88 -1.36 -1.48 c-0.04 -0.2 -0.12 -0.4 -0.12 -0.6 c-0.04 -0.4 -0.16 -0.76 -0.2 -1.16 c-0.12 -0.6 -0.24 -1.2 -0.2 -1.8 c0.04 -0.2 0.04 -0.4 0.08 -0.6 c0.04 -0.28 0.08 -0.56 0.08 -0.84 c0 -0.16 0 -0.32 0.04 -0.48 c0.12 -0.28 0.08 -0.52 0.04 -0.76 c-0.08 -0.24 -0.12 -0.44 -0.2 -0.68 c0.08 -0.2 0.16 -0.4 0.24 -0.64 c0.04 -0.12 0.16 -0.2 0.28 -0.2 l0.48 0 c0.44 -0.04 0.92 -0.04 1.36 -0.04 c0.2 0 0.32 0.08 0.44 0.2 c0.08 0.08 0.12 0.16 0.12 0.24 c-0.04 0.24 0 0.44 0.2 0.6 c0.08 0.08 0.12 0.2 0.08 0.36 c-0.04 0.08 -0.08 0.2 -0.12 0.32 c-0.08 0.2 -0.12 0.44 -0.08 0.68 c0.08 0.24 0.04 0.52 0.08 0.76 c0 0.28 -0.04 0.52 0.08 0.8 c0.04 0.12 0.04 0.24 0 0.36 c-0.12 0.36 -0.08 0.68 -0.04 1.04 c0 0.16 0.08 0.32 0.24 0.44 c0.36 0.32 0.72 0.6 1.2 0.76 c0.12 0.04 0.28 0.12 0.4 0.16 c0.2 0.08 0.4 0.12 0.64 0.12 c0.16 0 0.36 0 0.52 0.08 c0.56 0.12 1.08 0.04 1.6 -0.16 c0.2 -0.04 0.4 -0.16 0.6 -0.24 c0.16 -0.44 0.32 -0.84 0.28 -1.32 l0 -2.84 l0 -0.4 c0 -0.28 -0.08 -0.52 -0.36 -0.64 c-0.08 -0.08 -0.16 -0.16 -0.2 -0.28 c-0.08 -0.36 -0.32 -0.64 -0.6 -0.88 c-0.52 -0.48 -1 -0.96 -1.52 -1.44 c-0.12 -0.08 -0.2 -0.2 -0.36 -0.24 c-0.16 0 -0.36 -0.08 -0.48 -0.16 c-0.28 -0.16 -0.56 -0.24 -0.88 -0.32 c-0.8 -0.2 -1.52 -0.56 -2.12 -1.12 c-0.52 -0.48 -0.84 -1.04 -1.16 -1.56 c-0.16 -0.24 -0.28 -0.52 -0.4 -0.76 c-0.2 -0.36 -0.24 -0.8 -0.36 -1.16 c-0.04 -0.08 0 -0.16 0 -0.2 c0.08 -0.28 0.12 -0.52 -0.04 -0.76 c-0.04 -0.48 -0.16 -0.92 -0.12 -1.4 c0.04 -0.44 0.08 -0.88 0.04 -1.32 l0 -0.16 c0.12 -0.32 0.12 -0.6 0.12 -0.92 l0 -1.88 c-0.04 -0.4 0.08 -0.76 0.32 -1.08 c0.08 -0.12 0.12 -0.2 0.2 -0.28 c0.28 -0.36 0.6 -0.76 0.92 -1.12 c0.04 -0.08 0.12 -0.12 0.24 -0.2 c0.36 -0.16 0.64 -0.4 0.96 -0.64 c0.24 -0.2 0.52 -0.36 0.84 -0.48 c0.28 -0.08 0.52 -0.24 0.8 -0.24 c0.12 0 0.24 -0.04 0.4 -0.04 c0.32 0 0.64 -0.04 0.96 -0.08 c0.2 -0.04 0.44 0 0.64 0.04 c0.36 0.04 0.68 0.08 1.04 0.08 c0.24 0.04 0.52 0.04 0.76 0.12 c0.2 0.04 0.4 0.16 0.6 0.28 c0.32 0.2 0.56 0.52 0.76 0.84 c0.16 0.24 0.28 0.48 0.48 0.68 c0.12 0.16 0.24 0.32 0.28 0.52 c0.04 0.12 0.08 0.24 0.16 0.36 c0.12 0.36 0.24 0.72 0.28 1.12 c0.04 0.16 0.08 0.32 0.08 0.44 c0.04 0.32 0.16 0.6 0.4 0.8 c0.12 0.08 0.12 0.16 0.12 0.28 c0 0.48 0 0.96 -0.04 1.44 c-0.08 0.36 -0.08 0.72 -0.08 1.08 c0 0.52 -0.04 1 -0.16 1.48 c-0.04 0.2 -0.04 0.36 0 0.52 c0.04 0.12 0.04 0.2 0.04 0.32 c0 0.08 0 0.12 -0.04 0.2 c-0.16 0.16 -0.32 0.28 -0.52 0.36 c-0.44 0.12 -0.88 0.2 -1.36 0.28 c-0.04 0.04 -0.12 0 -0.16 -0.04 c-0.12 -0.12 -0.28 -0.28 -0.4 -0.44 c0 -0.04 -0.04 -0.12 -0.04 -0.16 c-0.04 -0.28 -0.08 -0.52 -0.08 -0.8 c0.04 -0.36 0 -0.72 0 -1.08 c0 -0.28 0.04 -0.56 -0.04 -0.84 c-0.04 -0.04 -0.04 -0.08 -0.04 -0.12 c0.08 -0.72 -0.12 -1.44 -0.28 -2.12 c0 -0.04 0 -0.08 -0.04 -0.12 c-0.2 -0.36 -0.36 -0.8 -0.68 -1.12 c-0.2 -0.24 -0.44 -0.48 -0.68 -0.68 c-0.28 -0.24 -0.6 -0.36 -0.88 -0.52 l-0.2 0 c-0.44 0 -0.84 0.16 -1.24 0.36 c-0.08 0.04 -0.12 0.12 -0.2 0.16 l-0.56 0.56 s-0.4 0.4 -0.44 0.68 c0 0.12 -0.04 0.2 -0.04 0.28 c-0.04 0.08 -0.08 0.2 -0.04 0.32 c0.04 0.32 -0.16 0.68 -0.12 1 l0 2.88 c0 0.16 0.04 0.32 0.04 0.52 z M84.304 28.880000000000003 l-0.12 0.24 l0 0.44 c-0.04 1.56 -0.04 3.12 -0.08 4.68 c-0.04 1.2 -0.12 2.36 -0.2 3.56 c0 0.2 -0.08 0.4 -0.08 0.6 c-0.04 0.16 -0.12 0.24 -0.28 0.32 c-0.16 0.04 -0.32 0.08 -0.48 0.16 c-0.56 0.12 -1.08 0.16 -1.64 0 c-0.16 -0.08 -0.28 -0.2 -0.32 -0.36 c-0.04 -0.12 -0.08 -0.24 -0.08 -0.36 c-0.08 -0.68 -0.16 -1.32 -0.16 -2 c-0.08 -1.16 -0.04 -2.32 -0.08 -3.48 c-0.04 -0.96 -0.04 -1.92 -0.08 -2.84 c0 -0.12 0.04 -0.24 -0.08 -0.36 c-0.24 -0.08 -0.48 -0.04 -0.72 0 c-1.4 0.24 -2.84 0.48 -4.24 0.72 l-0.36 0.12 c-0.04 0.04 -0.12 0.12 -0.12 0.16 c-0.04 0.16 -0.04 0.28 -0.04 0.44 l-0.12 5.64 c0 0.4 -0.08 0.76 -0.12 1.12 c-0.04 0.2 0.04 0.48 -0.16 0.64 c-0.12 0.12 -0.36 0.12 -0.52 0.2 c-0.28 0.12 -0.6 0.16 -0.88 0.16 l-0.6 0 c-0.24 0 -0.44 -0.08 -0.64 -0.16 c-0.12 0 -0.2 -0.08 -0.2 -0.16 c-0.12 -0.52 -0.24 -1.04 -0.24 -1.56 c-0.04 -1.68 -0.04 -3.36 -0.04 -5.04 l0 -0.68 c-0.04 -0.2 -0.12 -0.28 -0.28 -0.28 c-0.36 0 -0.68 0.04 -1.04 0.08 c-0.68 0.04 -1.32 -0.08 -2 -0.2 c-0.08 -0.04 -0.16 -0.12 -0.2 -0.2 c-0.08 -0.36 -0.2 -0.68 -0.24 -1 c-0.04 -0.36 0 -0.64 0.04 -0.96 c0.04 -0.16 0.16 -0.28 0.32 -0.32 c0.28 -0.08 0.56 -0.12 0.88 -0.12 c0.76 -0.04 1.52 -0.2 2.24 -0.36 c0.08 0 0.16 -0.04 0.2 -0.08 c0.12 -0.24 0.08 -0.52 0.08 -0.76 l0 -6 l0 -3.16 c-0.04 -0.44 0.04 -0.88 0.24 -1.28 c0.36 -0.84 0.72 -1.68 1.12 -2.52 c0 -0.08 0.08 -0.16 0.16 -0.24 c0 -0.04 0.08 -0.04 0.08 -0.08 c0.4 -0.64 1.04 -0.96 1.56 -1.36 c0.28 -0.2 0.56 -0.32 0.92 -0.32 c0.2 -0.04 0.4 -0.08 0.6 -0.08 c0.12 -0.04 0.28 -0.04 0.4 -0.08 c0.36 -0.12 0.68 -0.2 1.04 -0.04 c0.08 0.04 0.2 0.04 0.28 0.04 c0.28 -0.12 0.52 -0.04 0.8 0 c0.44 0.12 0.92 0.28 1.28 0.56 c0.24 0.16 0.36 0.4 0.64 0.52 c0.24 0.08 0.36 0.32 0.52 0.48 c0.32 0.32 0.6 0.64 0.92 0.92 c0.24 0.24 0.44 0.52 0.64 0.8 c0.08 0.12 0.12 0.32 0.2 0.48 c0.12 0.36 0.24 0.68 0.24 1.08 c0 0.2 0.04 0.4 0.08 0.56 c0.08 0.36 0.16 0.68 0.24 1.04 c0.28 0.8 0.32 1.64 0.52 2.44 c0.12 0.64 0.12 1.24 0.12 1.88 l0 0.04 l0 2.76 c0 0.12 0 0.24 0.16 0.36 c0.84 -0.08 1.76 -0.04 2.64 -0.04 c0.12 0 0.24 0 0.36 0.04 c0.04 0 0.16 0.08 0.16 0.16 c0.04 0.28 0.12 0.6 0.16 0.92 c0.04 0.44 0 0.84 0 1.28 c0 0.16 -0.04 0.28 -0.08 0.44 s-0.16 0.28 -0.36 0.32 c-0.16 0.04 -0.28 0.04 -0.44 0.04 l-1.4 0 c-0.4 0 -0.76 0 -1.12 0.04 z M80.664 23.28 l0 -2.4 c0 -0.28 0 -0.56 -0.16 -0.84 c-0.08 -0.12 -0.08 -0.24 -0.12 -0.36 c-0.04 -0.4 -0.16 -0.76 -0.36 -1.12 l-0.24 -0.6 c-0.16 -0.52 -0.4 -1 -0.8 -1.4 c-0.24 -0.24 -0.44 -0.48 -0.68 -0.72 c-0.08 -0.08 -0.24 -0.16 -0.36 -0.2 c-0.2 -0.08 -0.44 -0.12 -0.68 -0.12 c-0.72 0.04 -1 0.28 -1.12 0.92 c-0.04 0.04 -0.04 0.08 -0.04 0.12 c0 0.32 -0.12 0.6 -0.2 0.88 c-0.12 0.36 -0.2 0.72 -0.24 1.08 c-0.04 0.28 -0.08 0.52 -0.2 0.8 c-0.2 0.56 -0.32 1.2 -0.32 1.8 c0 0.48 -0.04 0.96 -0.04 1.4 c0 0.2 0 0.4 0.04 0.6 c0.08 0.16 0.04 0.36 0.04 0.52 c-0.12 0.52 -0.12 1.04 -0.08 1.56 c0.04 0.48 0.08 0.96 0.08 1.48 c0 0.08 0 0.2 0.04 0.28 c0 0.04 0.04 0.08 0.08 0.08 c0.12 0.04 0.2 0.04 0.32 0 c0.6 -0.08 1.2 -0.16 1.8 -0.28 c0.84 -0.2 1.68 -0.32 2.48 -0.48 c0.2 0 0.36 -0.04 0.52 -0.08 s0.24 -0.12 0.24 -0.32 l0 -0.52 l0 -2.08 z M104.79 28.880000000000003 l-0.12 0.24 l0 0.44 c-0.04 1.56 -0.04 3.12 -0.08 4.68 c-0.04 1.2 -0.12 2.36 -0.2 3.56 c0 0.2 -0.08 0.4 -0.08 0.6 c-0.04 0.16 -0.12 0.24 -0.28 0.32 c-0.16 0.04 -0.32 0.08 -0.48 0.16 c-0.56 0.12 -1.08 0.16 -1.64 0 c-0.16 -0.08 -0.28 -0.2 -0.32 -0.36 c-0.04 -0.12 -0.08 -0.24 -0.08 -0.36 c-0.08 -0.68 -0.16 -1.32 -0.16 -2 c-0.08 -1.16 -0.04 -2.32 -0.08 -3.48 c-0.04 -0.96 -0.04 -1.92 -0.08 -2.84 c0 -0.12 0.04 -0.24 -0.08 -0.36 c-0.24 -0.08 -0.48 -0.04 -0.72 0 c-1.4 0.24 -2.84 0.48 -4.24 0.72 l-0.36 0.12 c-0.04 0.04 -0.12 0.12 -0.12 0.16 c-0.04 0.16 -0.04 0.28 -0.04 0.44 l-0.12 5.64 c0 0.4 -0.08 0.76 -0.12 1.12 c-0.04 0.2 0.04 0.48 -0.16 0.64 c-0.12 0.12 -0.36 0.12 -0.52 0.2 c-0.28 0.12 -0.6 0.16 -0.88 0.16 l-0.6 0 c-0.24 0 -0.44 -0.08 -0.64 -0.16 c-0.12 0 -0.2 -0.08 -0.2 -0.16 c-0.12 -0.52 -0.24 -1.04 -0.24 -1.56 c-0.04 -1.68 -0.04 -3.36 -0.04 -5.04 l0 -0.68 c-0.04 -0.2 -0.12 -0.28 -0.28 -0.28 c-0.36 0 -0.68 0.04 -1.04 0.08 c-0.68 0.04 -1.32 -0.08 -2 -0.2 c-0.08 -0.04 -0.16 -0.12 -0.2 -0.2 c-0.08 -0.36 -0.2 -0.68 -0.24 -1 c-0.04 -0.36 0 -0.64 0.04 -0.96 c0.04 -0.16 0.16 -0.28 0.32 -0.32 c0.28 -0.08 0.56 -0.12 0.88 -0.12 c0.76 -0.04 1.52 -0.2 2.24 -0.36 c0.08 0 0.16 -0.04 0.2 -0.08 c0.12 -0.24 0.08 -0.52 0.08 -0.76 l0 -6 l0 -3.16 c-0.04 -0.44 0.04 -0.88 0.24 -1.28 c0.36 -0.84 0.72 -1.68 1.12 -2.52 c0 -0.08 0.08 -0.16 0.16 -0.24 c0 -0.04 0.08 -0.04 0.08 -0.08 c0.4 -0.64 1.04 -0.96 1.56 -1.36 c0.28 -0.2 0.56 -0.32 0.92 -0.32 c0.2 -0.04 0.4 -0.08 0.6 -0.08 c0.12 -0.04 0.28 -0.04 0.4 -0.08 c0.36 -0.12 0.68 -0.2 1.04 -0.04 c0.08 0.04 0.2 0.04 0.28 0.04 c0.28 -0.12 0.52 -0.04 0.8 0 c0.44 0.12 0.92 0.28 1.28 0.56 c0.24 0.16 0.36 0.4 0.64 0.52 c0.24 0.08 0.36 0.32 0.52 0.48 c0.32 0.32 0.6 0.64 0.92 0.92 c0.24 0.24 0.44 0.52 0.64 0.8 c0.08 0.12 0.12 0.32 0.2 0.48 c0.12 0.36 0.24 0.68 0.24 1.08 c0 0.2 0.04 0.4 0.08 0.56 c0.08 0.36 0.16 0.68 0.24 1.04 c0.28 0.8 0.32 1.64 0.52 2.44 c0.12 0.64 0.12 1.24 0.12 1.88 l0 0.04 l0 2.76 c0 0.12 0 0.24 0.16 0.36 c0.84 -0.08 1.76 -0.04 2.64 -0.04 c0.12 0 0.24 0 0.36 0.04 c0.04 0 0.16 0.08 0.16 0.16 c0.04 0.28 0.12 0.6 0.16 0.92 c0.04 0.44 0 0.84 0 1.28 c0 0.16 -0.04 0.28 -0.08 0.44 s-0.16 0.28 -0.36 0.32 c-0.16 0.04 -0.28 0.04 -0.44 0.04 l-1.4 0 c-0.4 0 -0.76 0 -1.12 0.04 z M101.15 23.28 l0 -2.4 c0 -0.28 0 -0.56 -0.16 -0.84 c-0.08 -0.12 -0.08 -0.24 -0.12 -0.36 c-0.04 -0.4 -0.16 -0.76 -0.36 -1.12 l-0.24 -0.6 c-0.16 -0.52 -0.4 -1 -0.8 -1.4 c-0.24 -0.24 -0.44 -0.48 -0.68 -0.72 c-0.08 -0.08 -0.24 -0.16 -0.36 -0.2 c-0.2 -0.08 -0.44 -0.12 -0.68 -0.12 c-0.72 0.04 -1 0.28 -1.12 0.92 c-0.04 0.04 -0.04 0.08 -0.04 0.12 c0 0.32 -0.12 0.6 -0.2 0.88 c-0.12 0.36 -0.2 0.72 -0.24 1.08 c-0.04 0.28 -0.08 0.52 -0.2 0.8 c-0.2 0.56 -0.32 1.2 -0.32 1.8 c0 0.48 -0.04 0.96 -0.04 1.4 c0 0.2 0 0.4 0.04 0.6 c0.08 0.16 0.04 0.36 0.04 0.52 c-0.12 0.52 -0.12 1.04 -0.08 1.56 c0.04 0.48 0.08 0.96 0.08 1.48 c0 0.08 0 0.2 0.04 0.28 c0 0.04 0.04 0.08 0.08 0.08 c0.12 0.04 0.2 0.04 0.32 0 c0.6 -0.08 1.2 -0.16 1.8 -0.28 c0.84 -0.2 1.68 -0.32 2.48 -0.48 c0.2 0 0.36 -0.04 0.52 -0.08 s0.24 -0.12 0.24 -0.32 l0 -0.52 l0 -2.08 z M109.27600000000001 14.96 c-0.12 -0.52 -0.16 -1 -0.16 -1.48 c0 -0.24 -0.04 -0.52 0 -0.8 c0.08 -0.52 0.16 -0.64 0.72 -0.68 c0.16 -0.04 0.32 -0.04 0.44 0 c0.76 0 1.52 -0.08 2.24 -0.32 c0.08 0 0.16 -0.04 0.2 -0.04 c0.48 -0.04 0.92 -0.08 1.4 -0.12 c0.2 0 0.4 0 0.56 0.04 c0.32 0 0.6 0.04 0.88 0.08 c0.12 0.04 0.24 0.04 0.36 0.08 c0.44 0.12 0.88 0.24 1.36 0.2 c0.24 0 0.48 0.04 0.72 0.16 c0.16 0.08 0.36 0.16 0.52 0.2 c0.16 0.08 0.32 0.12 0.48 0.2 c0.48 0.28 0.92 0.6 1.4 0.92 c0.12 0.08 0.2 0.2 0.28 0.32 c0.32 0.36 0.64 0.76 1 1.08 c0.2 0.16 0.32 0.36 0.44 0.56 c0.32 0.44 0.6 0.92 0.76 1.48 c0.12 0.36 0.24 0.72 0.32 1.12 c0 0.2 0.08 0.36 0.16 0.56 c0.04 0.12 0.08 0.24 0.08 0.36 c0.04 0.72 0.16 1.44 0.28 2.16 l0 0.08 c-0.04 0.76 0.16 1.52 0.16 2.32 c0.04 0.72 0.08 1.44 0.2 2.16 c0.04 0.24 0.12 0.48 0.16 0.72 c0 0.16 0.04 0.32 0.04 0.52 c0.04 0.48 0.08 0.96 0.08 1.44 c0 0.52 -0.04 1.04 -0.04 1.52 c0 0.52 -0.08 1.04 -0.16 1.52 c-0.08 0.6 -0.08 1.16 -0.24 1.76 l0 0.36 c0 0.24 -0.04 0.48 -0.16 0.68 c-0.08 0.24 -0.16 0.48 -0.2 0.72 c0 0.12 -0.04 0.28 -0.12 0.4 c-0.12 0.28 -0.16 0.56 -0.16 0.88 c0 0.2 -0.08 0.36 -0.2 0.52 c-0.16 0.2 -0.28 0.44 -0.36 0.72 c-0.08 0.24 -0.28 0.4 -0.44 0.56 c0 0.04 -0.04 0.08 -0.12 0.12 c-0.28 0.08 -0.52 0.28 -0.76 0.52 c-0.04 0.04 -0.16 0.08 -0.28 0.08 c-0.24 0 -0.44 0.04 -0.68 0.12 c-0.64 0.08 -1.28 0.28 -1.96 0.28 c-0.6 0.04 -1.2 0.04 -1.8 0 c-1.08 -0.04 -2.12 0 -3.16 0 c-0.12 0 -0.24 0 -0.36 0.04 l-0.2 0 c-0.56 0 -1.08 -0.04 -1.6 -0.08 c-0.08 -0.04 -0.2 -0.08 -0.28 -0.12 c-0.16 -0.24 -0.44 -0.28 -0.68 -0.4 c-0.08 -0.04 -0.16 -0.12 -0.16 -0.24 c0.04 -0.48 0 -1 0.2 -1.48 c0.04 -0.16 0.12 -0.32 0.16 -0.48 c0.12 -0.28 0.32 -0.36 0.6 -0.4 c0.2 -0.04 0.44 0 0.64 0.08 c0.08 0 0.2 -0.08 0.2 -0.16 c0.04 -0.24 0.04 -0.44 0.04 -0.68 l0 -7.48 l0 -8.56 l0 -3.48 c0 -0.16 0 -0.32 -0.04 -0.44 c0 -0.08 -0.08 -0.12 -0.16 -0.16 c-0.32 -0.04 -0.64 -0.04 -0.92 0.04 c-0.36 0.12 -0.72 0.12 -1.08 0 c-0.16 -0.08 -0.4 -0.08 -0.6 -0.08 z M115.156 14.8 c0 0.08 -0.04 0.12 -0.04 0.2 l0 0.68 l0 19.36 l0 0.52 l0 0.24 c0.04 0.08 0.12 0.16 0.2 0.16 l0.44 0 c0.64 0.04 1.24 0 1.84 0.04 c0.48 0 0.92 -0.08 1.36 -0.16 c0.28 -0.04 0.56 -0.16 0.84 -0.24 c0.16 -0.08 0.24 -0.16 0.24 -0.32 c0.04 -0.32 0.12 -0.6 0.24 -0.84 c0.12 -0.28 0.16 -0.56 0.24 -0.84 c0.04 -0.12 0.08 -0.2 0.12 -0.28 c0.12 -0.2 0.16 -0.4 0.2 -0.6 c0.08 -0.48 0.12 -0.92 0.2 -1.4 c0.2 -1.2 0.2 -2.4 0.2 -3.6 c0 -0.4 -0.04 -0.8 -0.16 -1.16 c-0.08 -0.16 -0.08 -0.32 -0.12 -0.48 c-0.04 -0.4 -0.04 -0.8 -0.12 -1.16 c-0.04 -0.16 -0.04 -0.36 -0.04 -0.52 c0.04 -0.6 0 -1.16 -0.08 -1.76 c-0.04 -0.24 -0.04 -0.52 -0.08 -0.8 c0 -0.12 0 -0.28 -0.04 -0.4 c-0.08 -0.68 -0.2 -1.36 -0.32 -2.04 c-0.08 -0.64 -0.32 -1.2 -0.52 -1.8 c-0.04 -0.2 -0.16 -0.36 -0.28 -0.52 c-0.28 -0.28 -0.56 -0.6 -0.8 -0.92 c-0.24 -0.28 -0.48 -0.48 -0.8 -0.64 c-0.4 -0.28 -0.8 -0.4 -1.28 -0.52 c-0.2 -0.04 -0.4 -0.08 -0.64 -0.12 s-0.52 -0.12 -0.8 -0.08 z"/></g>
			</g>
		</svg>
	